<svg id="Future_Corporation_Software_Icon" data-name="Future Corporation Software Icon" xmlns="http://www.w3.org/2000/svg" width="39.156" height="39.432" viewBox="0 0 39.156 39.432">
  <path id="Path_1803" data-name="Path 1803" d="M253.11,21.319v-.312c.047-.013.021-.08.085-.093.034.034.076.072.118.11a5.807,5.807,0,0,0,1.448,1,16.372,16.372,0,0,0,2.1.771.787.787,0,0,0-.195-.131c-.385-.219-.779-.43-1.16-.657a8.358,8.358,0,0,1-1.333-.927,2.452,2.452,0,0,1-.834-2.637c.059.08.106.135.148.194a7.9,7.9,0,0,0,1.9,1.9,20.984,20.984,0,0,0,2.015,1.184c.013.008.03.008.051-.013-.08-.063-.165-.126-.246-.194-.559-.438-1.122-.872-1.638-1.361a6.093,6.093,0,0,1-.906-1.045,2.609,2.609,0,0,1-.2-2.393,11.581,11.581,0,0,0,1.761,2.35,17.082,17.082,0,0,0,2.273,1.816.663.663,0,0,0-.11-.152c-.474-.535-.944-1.078-1.38-1.647a8.734,8.734,0,0,1-1.029-1.618,3.154,3.154,0,0,1-.322-1.571,4.312,4.312,0,0,1,.33-1.318c.013-.025,0-.076.064-.067.03.059.059.122.089.181.233.476.47.948.728,1.411a17.93,17.93,0,0,0,2.747,3.766c.08.084.157.168.233.253v-.008l-.008.008c.03-.051-.008-.088-.034-.126-.08-.135-.165-.265-.246-.4a16.85,16.85,0,0,1-1.253-2.384,6.334,6.334,0,0,1-.483-1.988,6.542,6.542,0,0,1,.165-1.816,7.418,7.418,0,0,1,.237-.872,1.46,1.46,0,0,1,.131.274,43.666,43.666,0,0,0,2.328,4.722,19,19,0,0,0,4.741,5.455c.961.75,1.968,1.436,3,2.094,1.172.75,2.332,1.521,3.433,2.38.995.775,1.943,1.6,2.882,2.443a.413.413,0,0,0,.152.114c.059-.126.119-.249.174-.375a2.66,2.66,0,0,1,.643-.914c.152-.143.3-.286.453-.43.131-.122.131-.122.068-.286a1.76,1.76,0,0,1-.114-1.032,2.292,2.292,0,0,1,.245-.67,1.728,1.728,0,0,0,1.244.771c-.072-.063-.123-.105-.174-.152a3.041,3.041,0,0,1-.381-.425,1.237,1.237,0,0,1-.25-.973,4.18,4.18,0,0,1,.148-.6c.013-.034.008-.08.034-.084.1.088.19.156.271.24a2.528,2.528,0,0,0,1.164.72c.224.067.44.164.694.227-.127-.088-.233-.168-.339-.244a4.355,4.355,0,0,1-.677-.569,1.446,1.446,0,0,1-.377-.725,3.321,3.321,0,0,1,.042-1.116c.14.114.267.215.389.312a3.6,3.6,0,0,0,.957.586,11.665,11.665,0,0,0,1.469.354.391.391,0,0,0-.161-.11c-.212-.114-.427-.227-.643-.341a6.143,6.143,0,0,1-.8-.514,1.754,1.754,0,0,1-.593-1.845c.063.055.114.093.161.131a4.432,4.432,0,0,0,1.443.842,15.074,15.074,0,0,0,1.9.468c-.08-.038-.148-.076-.22-.105l-.927-.392a4.748,4.748,0,0,1-1.164-.64,1.876,1.876,0,0,1-.609-1.933.106.106,0,0,1,.072.034,5.138,5.138,0,0,0,2.023.994c.643.164,1.287.324,1.922.484-.14-.063-.279-.131-.423-.194-.491-.219-.986-.43-1.46-.682a5.983,5.983,0,0,1-.956-.619,2.309,2.309,0,0,1-.652-.8,2.181,2.181,0,0,1-.178-1.133.251.251,0,0,1,.03-.013.683.683,0,0,1,.076.042,8.72,8.72,0,0,0,1.875.927c.885.333,1.795.607,2.7.88a.018.018,0,0,1,.025-.013c.013,0,.013.017,0,.021s-.017-.008-.025-.013c-.025-.063-.093-.076-.148-.105-.339-.177-.673-.354-1.016-.527a16.376,16.376,0,0,1-1.477-.834,6.149,6.149,0,0,1-1.173-.944,2.368,2.368,0,0,1-.673-1.3,2.115,2.115,0,0,1,.017-.729,16.806,16.806,0,0,0,5.528,2.725.607.607,0,0,0-.2-.135,17.656,17.656,0,0,1-2.865-1.816,7.145,7.145,0,0,1-1.4-1.436,3.152,3.152,0,0,1-.643-2.22.3.3,0,0,1,.051-.181c.089.063.178.122.258.181a29.366,29.366,0,0,0,5.193,3.012c.906.4,1.82.8,2.7,1.251a12.242,12.242,0,0,1,2.392,1.554,6.007,6.007,0,0,1,1.2,1.31,2.794,2.794,0,0,1,.5,1.415.093.093,0,0,0,.025.08v.451a1.1,1.1,0,0,0-.051.371,5.163,5.163,0,0,1-.7,1.681,12.488,12.488,0,0,1-1.6,2.018,35.828,35.828,0,0,1-3.2,2.944c-1.016.847-2.044,1.681-3.014,2.582a10.992,10.992,0,0,0-1.448,1.559,3.076,3.076,0,0,0-.567,1.192c-.055.265-.059.265.127.472a.363.363,0,0,1,.055.063.33.33,0,0,0,.322.143c1.448,0,2.9,0,4.343,0a1.665,1.665,0,0,1,.381.034,2.726,2.726,0,0,1,1.1.539,6.377,6.377,0,0,1,2.176,3.054,14.791,14.791,0,0,1,.533,1.858,9.256,9.256,0,0,1,.118,1.133,1.531,1.531,0,0,1-.106.644.753.753,0,0,1-.33.409,2.1,2.1,0,0,1-.5.2,9.763,9.763,0,0,1-2.184.257c-.034,0-.076.017-.119-.029.178-.067.347-.126.512-.19a2.127,2.127,0,0,0,.576-.316c.313-.244.313-.468,0-.716a.585.585,0,0,1-.169-.211,1.446,1.446,0,0,0-.652-.649c-.1-.051-.212-.088-.322-.131a1.467,1.467,0,0,1-.851-.67c-.042-.076-.093-.046-.144-.029-.449.126-.9.257-1.35.379a.524.524,0,0,0-.207.114c-.546.472-1.1.931-1.638,1.415a2.9,2.9,0,0,1-1.16.7.318.318,0,0,0-.19.164c-.245.413-.491.821-.737,1.23-.161.274-.152.333.076.543.161.147.326.295.487.442a1.293,1.293,0,0,1,.406.708c.055.261.1.522.131.783a1.99,1.99,0,0,0,.309.851,6.325,6.325,0,0,0,1.528,1.634.14.14,0,0,0,.195,0c.237-.173.483-.337.724-.51.047-.034.089-.067.157-.042.288.11.576.219.893.337-.127.042-.224.076-.322.11a.92.92,0,0,0-.415.274.382.382,0,0,0-.076.421c.059-.038.106-.067.157-.1.279-.181.563-.362.842-.548a.163.163,0,0,1,.173-.029c.241.1.483.185.724.278a.154.154,0,0,1-.11.055,1.169,1.169,0,0,0-.334.139.384.384,0,0,0-.182.472c.063,0,.106-.046.152-.076.224-.139.453-.282.677-.425a.179.179,0,0,1,.178-.034c.246.1.5.185.754.278-.491.185-.584.291-.508.586a.278.278,0,0,0,.123-.059c.19-.118.385-.236.571-.358a.226.226,0,0,1,.224-.025c.432.152.863.3,1.3.446.034.013.076.013.1.076a5.417,5.417,0,0,0-.8.08,3.091,3.091,0,0,0-.986.307c-.516.282-.567.653-.152,1.066.038.038.093.067.114.122-.03.038-.068.021-.1.021-.216,0-.427,0-.643,0a.511.511,0,0,1-.334-.105,3.664,3.664,0,0,0-1.223-.594,1.623,1.623,0,0,0-.533-.059c-.093,0-.195.013-.241.11s.017.19.076.265a1.641,1.641,0,0,0,.275.265c.038.029.093.046.11.118h-.677a.5.5,0,0,1-.246-.063c-.279-.156-.559-.3-.838-.459a.294.294,0,0,0-.258-.034c-.635.173-1.274.337-1.909.51a1.628,1.628,0,0,0-.394.118c-.008-.072.047-.114.085-.16.174-.215.351-.43.525-.644a.239.239,0,0,0,.08-.143l-2.713.442-.013-.034,1.232-.775-.008-.038h-4.207c.326-.122.652-.215.969-.341a2.47,2.47,0,0,0,.449-.223c.3-.2.288-.392-.03-.564a1.992,1.992,0,0,0-.368-.152,10.907,10.907,0,0,0-1.8-.371c-.863-.126-1.735-.215-2.6-.291q-1.625-.139-3.259-.2c-.038,0-.08.017-.118-.034l.36-.413c-.339.034-.639.038-.935.046a9.586,9.586,0,0,1-1.871-.08,4.375,4.375,0,0,1-.7-.16c.135-.2.267-.383.389-.569a.561.561,0,0,0,.119-.206l.021-.013s-.013-.008-.021,0-.009.013,0,.021c-.11-.034-.207.025-.309.046a16.737,16.737,0,0,1-2.184.451,3.4,3.4,0,0,1-.986-.029c.127-.088.229-.16.33-.236a6.343,6.343,0,0,0,.821-.682c.025-.017.068-.025.051-.063,0-.013-.038-.008-.059.008-.66.139-1.321.291-1.989.383a7.979,7.979,0,0,1-2.59-.025.85.85,0,0,1-.317-.084c.068-.017.118-.034.169-.046.8-.2,1.591-.4,2.379-.623.474-.139.952-.274,1.414-.459.08,0,.131-.067.241-.1-.093.084-.186.008-.241.076a.31.31,0,0,0-.152.008c-.7.126-1.4.253-2.1.354a16.066,16.066,0,0,1-2.108.194,5.611,5.611,0,0,1-2.027-.312c-.063-.021-.135-.025-.186-.1l3.776-.771c.389-.08.779-.164,1.168-.249a2.428,2.428,0,0,0,.432-.093,1.665,1.665,0,0,0-.432.042H262.1c-1.13.143-2.26.278-3.4.35a16.265,16.265,0,0,1-2.756-.021,7.138,7.138,0,0,1-1.981-.484,4.368,4.368,0,0,1-.728-.366c.089-.013.157-.025.224-.034.364-.029.724-.067,1.088-.11q1.3-.145,2.586-.4c1.308-.265,2.595-.619,3.877-1,1.329-.4,2.658-.8,4.017-1.07a18.033,18.033,0,0,1,3.153-.358c.415-.008.834-.008,1.249,0,.089,0,.135-.017.169-.105.068-.16.148-.312.22-.468.063-.139.068-.139-.068-.223a15.8,15.8,0,0,1-2.8-2.313A14.7,14.7,0,0,1,265,35.737c-.419-.666-.779-1.361-1.13-2.06a11.342,11.342,0,0,0-.8-1.411,2.506,2.506,0,0,0-.533-.564c-.343-.257-.673-.527-1.012-.792-.415-.324-.825-.653-1.24-.973a.139.139,0,0,1-.055-.185c.059-.152.11-.3.161-.455.009-.029.055-.067,0-.105.009.013.017.013.021,0V29.17l-.017.021c-.19.1-.326.265-.508.371a5.138,5.138,0,0,1-.711-.771l.576-.295a.371.371,0,0,0-.174-.025c-.2.008-.406.017-.605.034a.2.2,0,0,1-.2-.1c-.237-.324-.483-.644-.724-.969-.021-.029-.063-.055-.038-.105a.689.689,0,0,1,.085.013c.351.042.694.11,1.05.131.072.063.169-.013.241.051-.08-.021-.144-.093-.237-.088a.928.928,0,0,0-.1-.038c-.4-.126-.8-.253-1.206-.375a.38.38,0,0,1-.207-.143c-.241-.324-.487-.644-.728-.969-.021-.029-.059-.055-.055-.1l.013-.013c.241.046.47.139.707.2.271.072.529.177.8.236a.381.381,0,0,0,.165.051.351.351,0,0,0-.161-.084c-.08-.038-.161-.08-.246-.118-.512-.236-1.024-.472-1.541-.708a.718.718,0,0,1-.237-.168c-.313-.337-.626-.674-.944-1.011-.038-.042-.068-.093-.127-.11h0a.066.066,0,0,1,.076-.017c.047.017.1.038.144.059.436.173.863.371,1.308.531a4.447,4.447,0,0,0,.677.27,5.113,5.113,0,0,0-.681-.337c-.271-.135-.546-.27-.817-.409a10.189,10.189,0,0,1-1.812-1.133,2.664,2.664,0,0,1-1.007-1.5c.008-.084-.068-.156-.047-.244Zm35.5-2.713a.526.526,0,0,0,.08.708c.059.055.123.105.186.156a5.058,5.058,0,0,1,.588.539,2.619,2.619,0,0,1,.516,2.978,5.812,5.812,0,0,1-.707,1.163,11.568,11.568,0,0,1-1.922,1.988c-.83.708-1.71,1.356-2.582,2.018a23.507,23.507,0,0,0-2.116,1.761,9.044,9.044,0,0,0-1.007,1.12,1.424,1.424,0,0,0-.271.535.389.389,0,0,0,.144.455c.059-.021.08-.072.11-.114.165-.215.334-.425.512-.632a15.491,15.491,0,0,1,2.049-1.887c.817-.653,1.668-1.259,2.5-1.9a20.426,20.426,0,0,0,2.413-2.106,7.758,7.758,0,0,0,1.57-2.405,2.877,2.877,0,0,0-.275-2.831A4.158,4.158,0,0,0,289.257,19a5.316,5.316,0,0,0-.648-.4ZM275.488,32.464c-.025-.025-.047-.051-.072-.076-.906-.876-1.812-1.752-2.738-2.6a28.647,28.647,0,0,0-3.742-2.944c-.8-.522-1.63-1.015-2.417-1.559a19.47,19.47,0,0,1-2.984-2.473.394.394,0,0,0-.051-.038.458.458,0,0,0-.025.729c.03.034.063.067.1.1.533.472,1.058.948,1.621,1.382a31.48,31.48,0,0,0,2.654,1.8,27.83,27.83,0,0,1,3.581,2.607c1.13.973,2.209,2,3.276,3.041a1.539,1.539,0,0,0,.237.2.332.332,0,0,0,.389,0,.485.485,0,0,0,.178-.168Zm14.154,6.272c-.034.11-.047.177-.072.24a.557.557,0,0,0,.008.413c.195.539.377,1.087.567,1.626a.39.39,0,0,0,.068.156.522.522,0,0,0,.042-.493c-.131-.43-.267-.855-.4-1.285-.063-.206-.131-.413-.212-.661Zm-.762-.7c.008.114.013.185.021.261s.021.147.025.223a.388.388,0,0,0,.334.379.124.124,0,0,0,.034.008c.059.021.08-.008.093-.063.025-.1.051-.2.085-.3a.1.1,0,0,0-.042-.118c-.174-.122-.343-.249-.546-.4Z" transform="translate(-253.11 -12.54)" fill="#796038"/>
</svg>
